<?xml version="1.0" encoding="utf-8"?>
<!-- Generator: Adobe Illustrator 22.1.0, SVG Export Plug-In . SVG Version: 6.00 Build 0)  -->
<svg version="1.1" id="Layer_1" xmlns="http://www.w3.org/2000/svg" xmlns:xlink="http://www.w3.org/1999/xlink" x="0px" y="0px"
	 viewBox="0 0 390.1 131.7" style="enable-background:new 0 0 390.1 131.7;" xml:space="preserve">
<style type="text/css">
	.st0{fill:#92D1E4;}
</style>
<g>
	<g>
		<path d="M146.4,82.9h-3.8l6.3-16.9c0.4-1.2,1-2.1,1.7-2.7c0.7-0.7,1.7-1,3.1-1c1.5,0,2.6,0.4,3.4,1.2c0.7,0.8,1.1,1.9,1.1,3.2v12
			c0,0.3,0.1,0.6,0.3,0.8c0.2,0.2,0.4,0.3,0.7,0.3c0.6,0,0.9-0.3,1.1-0.8l4.9-12.9c0.4-1.2,1-2.1,1.7-2.7s1.7-1,3.1-1
			c1.5,0,2.6,0.4,3.4,1.2c0.8,0.8,1.1,1.9,1.1,3.2v16.2H171v-16c0-0.4-0.1-0.6-0.3-0.9c-0.2-0.2-0.4-0.3-0.7-0.3
			c-0.3,0-0.5,0.1-0.7,0.2c-0.2,0.2-0.3,0.4-0.4,0.6l-4.9,12.9c-0.4,1.2-1,2.1-1.7,2.7c-0.7,0.7-1.8,1-3.1,1c-1.5,0-2.6-0.4-3.4-1.2
			c-0.7-0.8-1.1-1.9-1.1-3.2V66.9c0-0.4-0.1-0.6-0.3-0.9s-0.4-0.3-0.7-0.3c-0.3,0-0.5,0.1-0.7,0.2c-0.2,0.2-0.3,0.4-0.4,0.6
			L146.4,82.9z"/>
		<path d="M182.9,62.6v13.5c0,1,0.3,1.8,0.8,2.4c0.5,0.5,1.4,0.8,2.6,0.8h3.6c1.1,0,2-0.3,2.5-0.8s0.8-1.3,0.8-2.4V62.6h3.5v13.8
			c0,2.1-0.6,3.7-1.6,4.8c-1.1,1.1-2.7,1.6-4.9,1.6h-4.3c-4.4,0-6.5-2.1-6.5-6.4V62.6H182.9z"/>
		<path d="M217,62.6v3.5h-10.4c-0.9,0-1.6,0.2-2,0.7c-0.4,0.4-0.6,1-0.6,1.7c0,0.3,0,0.6,0.1,0.9c0.1,0.3,0.2,0.6,0.5,0.8
			c0.2,0.2,0.5,0.4,0.9,0.5c0.4,0.1,0.9,0.2,1.5,0.2h4.7c1.4,0,2.5,0.2,3.4,0.5s1.6,0.8,2.1,1.4c0.5,0.6,0.9,1.2,1,1.9
			s0.3,1.4,0.3,2.2c0,0.9-0.1,1.6-0.4,2.4c-0.2,0.7-0.6,1.3-1.1,1.9c-0.5,0.5-1.2,0.9-2,1.2c-0.8,0.3-1.8,0.4-3,0.4h-11.3v-3.5h11.4
			c1,0,1.7-0.2,2.1-0.7c0.5-0.5,0.7-1.1,0.7-1.8c0-0.3,0-0.6-0.1-0.9c-0.1-0.3-0.3-0.6-0.5-0.8c-0.2-0.2-0.6-0.4-1-0.6
			c-0.4-0.1-0.9-0.2-1.5-0.2h-4.7c-1.4,0-2.5-0.2-3.3-0.5c-0.9-0.3-1.5-0.8-2-1.3c-0.5-0.6-0.8-1.2-1-1.9c-0.2-0.7-0.3-1.4-0.3-2.1
			c0-0.8,0.1-1.6,0.3-2.3c0.2-0.7,0.6-1.3,1.1-1.8c0.5-0.5,1.2-0.9,2-1.2c0.8-0.3,1.8-0.4,2.9-0.4H217z"/>
		<path d="M226,62.6v20.2h-3.5V62.6H226z"/>
		<path d="M247.1,62.6v3.5h-7.8c-2,0-3.4,0.5-4.3,1.5c-0.9,1-1.3,2.7-1.3,5.1c0,2.3,0.4,4,1.3,5c0.9,1,2.3,1.5,4.3,1.5h7.8v3.5h-7.8
			c-3,0-5.2-0.8-6.8-2.5s-2.4-4.2-2.4-7.6c0-3.4,0.8-6,2.4-7.6c1.6-1.7,3.8-2.5,6.8-2.5H247.1z"/>
		<path d="M261.2,82.9h-3.8l6.3-16.9c0.4-1.2,1-2.1,1.7-2.7s1.7-1,3.1-1c1.5,0,2.6,0.4,3.4,1.2c0.8,0.8,1.1,1.9,1.1,3.2v12
			c0,0.3,0.1,0.6,0.3,0.8c0.2,0.2,0.4,0.3,0.7,0.3c0.6,0,0.9-0.3,1.1-0.8l4.9-12.9c0.4-1.2,1-2.1,1.7-2.7c0.7-0.7,1.7-1,3.1-1
			c1.5,0,2.6,0.4,3.4,1.2c0.8,0.8,1.1,1.9,1.1,3.2v16.2h-3.6v-16c0-0.4-0.1-0.6-0.3-0.9c-0.2-0.2-0.4-0.3-0.7-0.3
			c-0.3,0-0.5,0.1-0.7,0.2c-0.2,0.2-0.3,0.4-0.4,0.6l-4.9,12.9c-0.4,1.2-1,2.1-1.7,2.7c-0.7,0.7-1.8,1-3.1,1c-1.5,0-2.6-0.4-3.4-1.2
			c-0.7-0.8-1.1-1.9-1.1-3.2V66.9c0-0.4-0.1-0.6-0.3-0.9s-0.4-0.3-0.8-0.3c-0.3,0-0.5,0.1-0.7,0.2c-0.2,0.2-0.3,0.4-0.4,0.6
			L261.2,82.9z"/>
		<path d="M297.7,62.6v20.2h-3.5V62.6H297.7z"/>
		<path d="M305.9,62.6l6.2,7.5l6.5-7.5h4.4l-8.7,10l8.7,10.3h-4.3l-6.7-8l-6.9,8h-4.4l9.1-10.6l-8.2-9.7H305.9z"/>
		<path d="M342.2,62.6v3.5h-10.1c-1.1,0-1.9,0.2-2.3,0.7c-0.5,0.5-0.7,1.1-0.7,1.9c0,1.6,1,2.4,3.1,2.4h10v3.2h-10
			c-2.1,0-3.1,0.8-3.1,2.5c0,0.8,0.2,1.4,0.8,1.9c0.5,0.4,1.3,0.7,2.3,0.7h10.3v3.5H332c-1.2,0-2.2-0.1-3.1-0.4
			c-0.8-0.3-1.5-0.7-2.1-1.2s-0.9-1.1-1.2-1.8c-0.2-0.7-0.4-1.4-0.4-2.2c0-1.2,0.2-2.1,0.8-2.9c0.5-0.8,1.2-1.4,2.2-1.8
			c-1.9-0.8-2.8-2.3-2.8-4.6c0-0.8,0.1-1.5,0.4-2.2c0.3-0.7,0.7-1.3,1.2-1.8c0.5-0.5,1.2-0.9,2.1-1.1c0.8-0.3,1.9-0.4,3.1-0.4H342.2
			z"/>
		<path d="M357.8,62.6c1.1,0,2.1,0.2,2.9,0.5c0.8,0.3,1.5,0.8,2,1.3c0.5,0.6,0.9,1.2,1.2,1.9c0.2,0.7,0.4,1.5,0.4,2.3
			c0,0.6-0.1,1.3-0.2,1.9c-0.2,0.6-0.4,1.2-0.8,1.8s-0.8,1-1.3,1.5c-0.5,0.4-1.2,0.7-2,1l4.7,8.1h-3.9l-4.6-7.8h-5.3
			c-0.3,0-0.5,0.2-0.5,0.5v7.3h-3.5v-8c0-1.1,0.2-2,0.8-2.5c0.5-0.5,1.3-0.8,2.4-0.8h7.9c0.5,0,0.9-0.1,1.3-0.2
			c0.4-0.2,0.6-0.4,0.9-0.6c0.2-0.3,0.4-0.6,0.5-0.9c0.1-0.3,0.2-0.7,0.2-1c0-0.7-0.2-1.3-0.7-1.9c-0.5-0.5-1.2-0.8-2.1-0.8h-11.1
			v-3.5H357.8z"/>
	</g>
	<g>
		<g>
			<path class="st0" d="M65.4,36.6v35.2c0,5.1-1.1,8.9-3.3,11.3c-2.2,2.5-5.4,3.7-9.6,3.7h-9.7c-4.6,0-8.3-1.4-11.1-4.3
				c-2.7-2.9-4.1-7.3-4.1-13.2c0-5.9,1.4-10.3,4.1-13.2c2.7-2.9,6.4-4.3,11.1-4.3h15.5V36.6H65.4z M43.5,58.5
				c-3.1,0-5.3,0.8-6.7,2.5c-1.4,1.7-2.1,4.4-2.1,8.2c0,3.8,0.7,6.5,2.1,8.2c1.4,1.7,3.6,2.5,6.7,2.5h6.9c2.9,0,4.9-0.7,6.1-2
				c1.2-1.3,1.8-3.5,1.8-6.5V58.5H43.5z"/>
			<path class="st0" d="M97,51.7c4.2,0,7.4,1.2,9.6,3.7c2.2,2.5,3.3,6.2,3.3,11.3v20.2c0,2.5-0.2,4.6-0.7,6.4
				c-0.5,1.8-1.2,3.2-2.3,4.3c-1,1.1-2.4,1.9-4.1,2.4c-1.7,0.5-3.8,0.8-6.2,0.8H75.8V94h20c2.6,0,4.4-0.6,5.4-1.7
				c1-1.1,1.5-2.9,1.5-5.4v-1.6H87.3c-4.7,0-8.4-1.4-11.1-4.1c-2.7-2.8-4.1-7-4.1-12.7c0-5.7,1.4-9.9,4.1-12.6
				c2.7-2.7,6.4-4.1,11.1-4.1H97z M79.2,68.7c0,3.6,0.7,6.2,2.1,7.8c1.4,1.6,3.6,2.4,6.7,2.4h14.8V66.7c0-2.9-0.6-5-1.8-6.2
				c-1.2-1.3-3.2-1.9-6-1.9h-7c-3.1,0-5.3,0.8-6.7,2.4C79.9,62.6,79.2,65.2,79.2,68.7z"/>
		</g>
		<rect x="76.1" y="36.8" class="st0" width="33.7" height="6.8"/>
		<rect x="27.7" y="94" class="st0" width="48.3" height="6.8"/>
	</g>
</g>
</svg>
