<?xml version="1.0" encoding="utf-8"?>
<!-- Generator: Adobe Illustrator 22.1.0, SVG Export Plug-In . SVG Version: 6.00 Build 0)  -->
<svg version="1.1" id="Layer_1" xmlns="http://www.w3.org/2000/svg" xmlns:xlink="http://www.w3.org/1999/xlink" x="0px" y="0px"
	 viewBox="0 0 834.4 158.9" style="enable-background:new 0 0 834.4 158.9;" xml:space="preserve">
<style type="text/css">
	.st0{fill:#FFFFFF;stroke:#000000;stroke-miterlimit:10;}
	.st1{fill:#92D1E4;}
</style>
<g>
	<path class="st0" d="M294.1,114.6h-9.4l15.6-41.8c1-3,2.5-5.2,4.2-6.7c1.7-1.7,4.2-2.5,7.7-2.5c3.7,0,6.4,1,8.4,3
		c1.7,2,2.7,4.7,2.7,7.9v29.7c0,0.7,0.2,1.5,0.7,2c0.5,0.5,1,0.7,1.7,0.7c1.5,0,2.2-0.7,2.7-2L340.6,73c1-3,2.5-5.2,4.2-6.7
		c1.7-1.5,4.2-2.5,7.7-2.5c3.7,0,6.4,1,8.4,3c2,2,2.7,4.7,2.7,7.9v40.1h-8.7V75.2c0-1-0.2-1.5-0.7-2.2c-0.5-0.5-1-0.7-1.7-0.7
		s-1.2,0.2-1.7,0.5c-0.5,0.5-0.7,1-1,1.5l-12.1,31.9c-1,3-2.5,5.2-4.2,6.7c-1.7,1.7-4.5,2.5-7.7,2.5c-3.7,0-6.4-1-8.4-3
		c-1.7-2-2.7-4.7-2.7-7.9V75c0-1-0.2-1.5-0.7-2.2s-1-0.7-1.7-0.7c-0.7,0-1.2,0.2-1.7,0.5c-0.5,0.5-0.7,1-1,1.5L294.1,114.6z"/>
	<path class="st0" d="M384.4,64.4v33.4c0,2.5,0.7,4.5,2,5.9c1.2,1.2,3.5,2,6.4,2h8.9c2.7,0,5-0.7,6.2-2c1.2-1.2,2-3.2,2-5.9V64.4
		h8.7v34.2c0,5.2-1.5,9.2-4,11.9c-2.7,2.7-6.7,4-12.1,4h-10.6c-10.9,0-16.1-5.2-16.1-15.8V64.4H384.4z"/>
	<path class="st0" d="M468.8,64.4V73h-25.7c-2.2,0-4,0.5-5,1.7c-1,1-1.5,2.5-1.5,4.2c0,0.7,0,1.5,0.2,2.2c0.2,0.7,0.5,1.5,1.2,2
		c0.5,0.5,1.2,1,2.2,1.2c1,0.2,2.2,0.5,3.7,0.5h11.6c3.5,0,6.2,0.5,8.4,1.2s4,2,5.2,3.5s2.2,3,2.5,4.7c0.2,1.7,0.7,3.5,0.7,5.4
		c0,2.2-0.2,4-1,5.9c-0.5,1.7-1.5,3.2-2.7,4.7c-1.2,1.2-3,2.2-5,3c-2,0.7-4.5,1-7.4,1h-28v-8.7h28.2c2.5,0,4.2-0.5,5.2-1.7
		c1.2-1.2,1.7-2.7,1.7-4.5c0-0.7,0-1.5-0.2-2.2c-0.2-0.7-0.7-1.5-1.2-2c-0.5-0.5-1.5-1-2.5-1.5c-1-0.2-2.2-0.5-3.7-0.5h-11.6
		c-3.5,0-6.2-0.5-8.2-1.2c-2.2-0.7-3.7-2-5-3.2c-1.2-1.5-2-3-2.5-4.7c-0.5-1.7-0.7-3.5-0.7-5.2c0-2,0.2-4,0.7-5.7
		c0.5-1.7,1.5-3.2,2.7-4.5c1.2-1.2,3-2.2,5-3s4.5-1,7.2-1h25.2V64.4z"/>
	<path class="st0" d="M491.1,64.4v50h-8.7v-50H491.1z"/>
	<path class="st0" d="M543.3,64.4V73H524c-5,0-8.4,1.2-10.6,3.7c-2.2,2.5-3.2,6.7-3.2,12.6c0,5.7,1,9.9,3.2,12.4
		c2.2,2.5,5.7,3.7,10.6,3.7h19.3v8.7H524c-7.4,0-12.9-2-16.8-6.2s-5.9-10.4-5.9-18.8s2-14.9,5.9-18.8c4-4.2,9.4-6.2,16.8-6.2h19.3
		V64.4z"/>
	<path class="st0" d="M578.2,114.6h-9.4l15.6-41.8c1-3,2.5-5.2,4.2-6.7c1.7-1.5,4.2-2.5,7.7-2.5c3.7,0,6.4,1,8.4,3s2.7,4.7,2.7,7.9
		v29.7c0,0.7,0.2,1.5,0.7,2c0.5,0.5,1,0.7,1.7,0.7c1.5,0,2.2-0.7,2.7-2L624.7,73c1-3,2.5-5.2,4.2-6.7c1.7-1.7,4.2-2.5,7.7-2.5
		c3.7,0,6.4,1,8.4,3c2,2,2.7,4.7,2.7,7.9v40.1h-8.9V75.2c0-1-0.2-1.5-0.7-2.2c-0.5-0.5-1-0.7-1.7-0.7c-0.7,0-1.2,0.2-1.7,0.5
		c-0.5,0.5-0.7,1-1,1.5l-12.1,31.9c-1,3-2.5,5.2-4.2,6.7c-1.7,1.7-4.5,2.5-7.7,2.5c-3.7,0-6.4-1-8.4-3c-1.7-2-2.7-4.7-2.7-7.9V75
		c0-1-0.2-1.5-0.7-2.2s-1-0.7-2-0.7c-0.7,0-1.2,0.2-1.7,0.5c-0.5,0.5-0.7,1-1,1.5L578.2,114.6z"/>
	<path class="st0" d="M668.6,64.4v50h-8.7v-50H668.6z"/>
	<path class="st0" d="M688.9,64.4l15.3,18.6l16.1-18.6h10.9l-21.5,24.8l21.5,25.5h-10.6L704,94.8l-17.1,19.8H676l22.5-26.2l-20.3-24
		C678.2,64.4,688.9,64.4,688.9,64.4z"/>
	<path class="st0" d="M778.7,64.4V73h-25c-2.7,0-4.7,0.5-5.7,1.7c-1.2,1.2-1.7,2.7-1.7,4.7c0,4,2.5,5.9,7.7,5.9h24.8v7.9H754
		c-5.2,0-7.7,2-7.7,6.2c0,2,0.5,3.5,2,4.7c1.2,1,3.2,1.7,5.7,1.7h25.5v8.7h-26c-3,0-5.4-0.2-7.7-1c-2-0.7-3.7-1.7-5.2-3
		c-1.5-1.2-2.2-2.7-3-4.5c-0.5-1.7-1-3.5-1-5.4c0-3,0.5-5.2,2-7.2c1.2-2,3-3.5,5.4-4.5c-4.7-2-6.9-5.7-6.9-11.4c0-2,0.2-3.7,1-5.4
		c0.7-1.7,1.7-3.2,3-4.5c1.2-1.2,3-2.2,5.2-2.7c2-0.7,4.7-1,7.7-1h24.8V64.4z"/>
	<path class="st0" d="M817.3,64.4c2.7,0,5.2,0.5,7.2,1.2s3.7,2,5,3.2c1.2,1.5,2.2,3,3,4.7c0.5,1.7,1,3.7,1,5.7
		c0,1.5-0.2,3.2-0.5,4.7c-0.5,1.5-1,3-2,4.5c-1,1.5-2,2.5-3.2,3.7c-1.2,1-3,1.7-5,2.5l11.6,20h-9.7l-11.4-19.3h-13.1
		c-0.7,0-1.2,0.5-1.2,1.2v18.1h-8.7V94.8c0-2.7,0.5-5,2-6.2c1.2-1.2,3.2-2,5.9-2h19.6c1.2,0,2.2-0.2,3.2-0.5c1-0.5,1.5-1,2.2-1.5
		c0.5-0.7,1-1.5,1.2-2.2s0.5-1.7,0.5-2.5c0-1.7-0.5-3.2-1.7-4.7c-1.2-1.2-3-2-5.2-2h-27.5v-8.7h26.7V64.4z"/>
</g>
<g>
	<path class="st1" d="M37.6,124.3h24c10.4,0,18.3-3,23.8-9.2c5.4-5.9,8.2-15.3,8.2-28V0H76v37.6H37.6c-11.6,0-20.8,3.5-27.5,10.6
		C3.5,55.4,0,66.3,0,80.9s3.5,25.5,10.1,32.7C17.1,120.8,26.2,124.3,37.6,124.3z M22.8,60.4c3.5-4.2,8.9-6.2,16.6-6.2H76v31.9
		c0,7.4-1.5,12.9-4.5,16.1c-3,3.2-7.9,5-15.1,5H39.4c-7.7,0-13.1-2-16.6-6.2c-3.5-4.2-5.2-10.9-5.2-20.3S19.3,64.6,22.8,60.4z"/>
	<path class="st1" d="M195.5,46.5c-5.4-6.2-13.4-9.2-23.8-9.2v0.2h-24c-11.6,0-20.8,3.5-27.5,10.1c-6.7,6.7-10.1,17.1-10.1,31.2
		s3.5,24.5,10.1,31.4c6.7,6.7,15.8,10.1,27.5,10.1h38.1v4c0,6.2-1.2,10.6-3.7,13.4c-2.5,2.7-6.9,4.2-13.4,4.2h-49h-0.5H0.2v16.8
		h119.1h0.5h51c5.9,0,11.1-0.7,15.3-2c4.2-1.2,7.7-3.2,10.1-5.9c2.7-2.7,4.5-6.2,5.7-10.6c1.2-4.5,1.7-9.7,1.7-15.8v-50
		C203.7,61.9,201,52.7,195.5,46.5z M186.1,104.7h-36.6c-7.7,0-13.1-2-16.6-5.9c-3.5-4-5.2-10.4-5.2-19.3c0-8.7,1.7-15.1,5.2-19.1
		c3.5-4,8.9-5.9,16.6-5.9h17.3c6.9,0,11.9,1.5,14.9,4.7c3,3,4.5,8.2,4.5,15.3V104.7z"/>
	<rect x="120" y="0.5" class="st1" width="83.4" height="16.8"/>
</g>
</svg>
