<?xml version="1.0" encoding="utf-8"?>
<!-- Generator: Adobe Illustrator 22.1.0, SVG Export Plug-In . SVG Version: 6.00 Build 0)  -->
<svg version="1.1" id="Layer_1" xmlns="http://www.w3.org/2000/svg" xmlns:xlink="http://www.w3.org/1999/xlink" x="0px" y="0px"
	 viewBox="0 0 1080 920" style="enable-background:new 0 0 1080 920;" xml:space="preserve">
<style type="text/css">
	.st0{fill:none;}
	.st1{fill:#FFFFFF;}
	.st2{font-family:'NasalizationRg-Regular';}
	.st3{font-size:29.9897px;}
	.st4{fill:#93D1E4;}
</style>
<g>
	<rect x="477.4" y="319" class="st0" width="265.6" height="60"/>
	<text transform="matrix(1 0 0 1 477.3898 341.7222)" class="st1 st2 st3">MUSIC MIXER</text>
	<g>
		<g>
			<path class="st4" d="M400.7,295.4v35.2c0,5.1-1.1,8.9-3.3,11.3c-2.2,2.5-5.4,3.7-9.6,3.7h-9.7c-4.6,0-8.3-1.4-11.1-4.3
				c-2.7-2.9-4.1-7.3-4.1-13.2c0-5.9,1.4-10.3,4.1-13.2c2.7-2.9,6.4-4.3,11.1-4.3h15.5v-15.2H400.7z M378.8,317.4
				c-3.1,0-5.3,0.8-6.7,2.5c-1.4,1.7-2.1,4.4-2.1,8.2c0,3.8,0.7,6.5,2.1,8.2c1.4,1.7,3.6,2.5,6.7,2.5h6.9c2.9,0,4.9-0.7,6.1-2
				c1.2-1.3,1.8-3.5,1.8-6.5v-12.9H378.8z"/>
			<path class="st4" d="M432.3,310.6c4.2,0,7.4,1.2,9.6,3.7c2.2,2.5,3.3,6.2,3.3,11.3v20.2c0,2.5-0.2,4.6-0.7,6.4
				c-0.5,1.8-1.2,3.2-2.3,4.3c-1,1.1-2.4,1.9-4.1,2.4c-1.7,0.5-3.8,0.8-6.2,0.8h-20.8v-6.8h20c2.6,0,4.4-0.6,5.4-1.7
				c1-1.1,1.5-2.9,1.5-5.4v-1.6h-15.5c-4.7,0-8.4-1.4-11.1-4.1c-2.7-2.8-4.1-7-4.1-12.7c0-5.7,1.4-9.9,4.1-12.6
				c2.7-2.7,6.4-4.1,11.1-4.1H432.3z M414.6,327.6c0,3.6,0.7,6.2,2.1,7.8c1.4,1.6,3.6,2.4,6.7,2.4h14.8v-12.3c0-2.9-0.6-5-1.8-6.2
				c-1.2-1.3-3.2-1.9-6-1.9h-7c-3.1,0-5.3,0.8-6.7,2.4C415.3,321.4,414.6,324,414.6,327.6z"/>
		</g>
		<rect x="411.4" y="295.7" class="st4" width="33.7" height="6.8"/>
		<rect x="363" y="352.9" class="st4" width="48.3" height="6.8"/>
	</g>
</g>
</svg>
