<?xml version="1.0" encoding="utf-8"?>
<!-- Generator: Adobe Illustrator 22.1.0, SVG Export Plug-In . SVG Version: 6.00 Build 0)  -->
<svg version="1.1" id="Layer_1" xmlns="http://www.w3.org/2000/svg" xmlns:xlink="http://www.w3.org/1999/xlink" x="0px" y="0px"
	 viewBox="0 0 425.9 139.9" style="enable-background:new 0 0 425.9 139.9;" xml:space="preserve">
<style type="text/css">
	.st0{fill:#FFFFFF;}
	.st1{fill:#93D1E4;}
</style>
<g>
	<g>
		<path class="st0" d="M139.7,68.7h-3.8l6.3-16.9c0.4-1.2,1-2.1,1.7-2.7c0.7-0.7,1.7-1,3.1-1c1.5,0,2.6,0.4,3.4,1.2
			c0.7,0.8,1.1,1.9,1.1,3.2v12c0,0.3,0.1,0.6,0.3,0.8s0.4,0.3,0.7,0.3c0.6,0,0.9-0.3,1.1-0.8l4.9-12.9c0.4-1.2,1-2.1,1.7-2.7
			c0.7-0.7,1.7-1,3.1-1c1.5,0,2.6,0.4,3.4,1.2c0.8,0.8,1.1,1.9,1.1,3.2v16.2h-3.6v-16c0-0.4-0.1-0.6-0.3-0.9
			c-0.2-0.2-0.4-0.3-0.7-0.3c-0.3,0-0.5,0.1-0.7,0.2c-0.2,0.2-0.3,0.4-0.4,0.6l-4.9,12.9c-0.4,1.2-1,2.1-1.7,2.7
			c-0.7,0.7-1.8,1-3.1,1c-1.5,0-2.6-0.4-3.4-1.2c-0.7-0.8-1.1-1.9-1.1-3.2V52.7c0-0.4-0.1-0.6-0.3-0.9s-0.4-0.3-0.7-0.3
			c-0.3,0-0.5,0.1-0.7,0.2c-0.2,0.2-0.3,0.4-0.4,0.6L139.7,68.7z"/>
		<path class="st0" d="M176.1,48.5V62c0,1,0.3,1.8,0.8,2.4c0.5,0.5,1.4,0.8,2.6,0.8h3.6c1.1,0,2-0.3,2.5-0.8
			c0.5-0.5,0.8-1.3,0.8-2.4V48.5h3.5v13.8c0,2.1-0.6,3.7-1.6,4.8c-1.1,1.1-2.7,1.6-4.9,1.6h-4.3c-4.4,0-6.5-2.1-6.5-6.4V48.5H176.1z
			"/>
		<path class="st0" d="M210.3,48.5V52h-10.4c-0.9,0-1.6,0.2-2,0.7c-0.4,0.4-0.6,1-0.6,1.7c0,0.3,0,0.6,0.1,0.9
			c0.1,0.3,0.2,0.6,0.5,0.8c0.2,0.2,0.5,0.4,0.9,0.5c0.4,0.1,0.9,0.2,1.5,0.2h4.7c1.4,0,2.5,0.2,3.4,0.5s1.6,0.8,2.1,1.4
			c0.5,0.6,0.9,1.2,1,1.9s0.3,1.4,0.3,2.2c0,0.9-0.1,1.6-0.4,2.4c-0.2,0.7-0.6,1.3-1.1,1.9c-0.5,0.5-1.2,0.9-2,1.2
			c-0.8,0.3-1.8,0.4-3,0.4h-11.3v-3.5h11.4c1,0,1.7-0.2,2.1-0.7c0.5-0.5,0.7-1.1,0.7-1.8c0-0.3,0-0.6-0.1-0.9
			c-0.1-0.3-0.3-0.6-0.5-0.8c-0.2-0.2-0.6-0.4-1-0.6c-0.4-0.1-0.9-0.2-1.5-0.2h-4.7c-1.4,0-2.5-0.2-3.3-0.5c-0.9-0.3-1.5-0.8-2-1.3
			c-0.5-0.6-0.8-1.2-1-1.9c-0.2-0.7-0.3-1.4-0.3-2.1c0-0.8,0.1-1.6,0.3-2.3c0.2-0.7,0.6-1.3,1.1-1.8c0.5-0.5,1.2-0.9,2-1.2
			c0.8-0.3,1.8-0.4,2.9-0.4H210.3z"/>
		<path class="st0" d="M219.3,48.5v20.2h-3.5V48.5H219.3z"/>
		<path class="st0" d="M240.4,48.5V52h-7.8c-2,0-3.4,0.5-4.3,1.5c-0.9,1-1.3,2.7-1.3,5.1c0,2.3,0.4,4,1.3,5c0.9,1,2.3,1.5,4.3,1.5
			h7.8v3.5h-7.8c-3,0-5.2-0.8-6.8-2.5s-2.4-4.2-2.4-7.6c0-3.4,0.8-6,2.4-7.6s3.8-2.5,6.8-2.5H240.4z"/>
		<path class="st0" d="M254.5,68.7h-3.8l6.3-16.9c0.4-1.2,1-2.1,1.7-2.7s1.7-1,3.1-1c1.5,0,2.6,0.4,3.4,1.2c0.8,0.8,1.1,1.9,1.1,3.2
			v12c0,0.3,0.1,0.6,0.3,0.8c0.2,0.2,0.4,0.3,0.7,0.3c0.6,0,0.9-0.3,1.1-0.8l4.9-12.9c0.4-1.2,1-2.1,1.7-2.7c0.7-0.7,1.7-1,3.1-1
			c1.5,0,2.6,0.4,3.4,1.2c0.8,0.8,1.1,1.9,1.1,3.2v16.2H279v-16c0-0.4-0.1-0.6-0.3-0.9c-0.2-0.2-0.4-0.3-0.7-0.3
			c-0.3,0-0.5,0.1-0.7,0.2c-0.2,0.2-0.3,0.4-0.4,0.6L272,65.3c-0.4,1.2-1,2.1-1.7,2.7c-0.7,0.7-1.8,1-3.1,1c-1.5,0-2.6-0.4-3.4-1.2
			c-0.7-0.8-1.1-1.9-1.1-3.2V52.7c0-0.4-0.1-0.6-0.3-0.9s-0.4-0.3-0.8-0.3c-0.3,0-0.5,0.1-0.7,0.2c-0.2,0.2-0.3,0.4-0.4,0.6
			L254.5,68.7z"/>
		<path class="st0" d="M291,48.5v20.2h-3.5V48.5H291z"/>
		<path class="st0" d="M299.2,48.5l6.2,7.5l6.5-7.5h4.4l-8.7,10l8.7,10.3H312l-6.7-8l-6.9,8H294l9.1-10.6l-8.2-9.7H299.2z"/>
		<path class="st0" d="M335.5,48.5V52h-10.1c-1.1,0-1.9,0.2-2.3,0.7c-0.5,0.5-0.7,1.1-0.7,1.9c0,1.6,1,2.4,3.1,2.4h10v3.2h-10
			c-2.1,0-3.1,0.8-3.1,2.5c0,0.8,0.2,1.4,0.8,1.9c0.5,0.4,1.3,0.7,2.3,0.7h10.3v3.5h-10.3c-1.2,0-2.2-0.1-3.1-0.4
			c-0.8-0.3-1.5-0.7-2.1-1.2s-0.9-1.1-1.2-1.8c-0.2-0.7-0.4-1.4-0.4-2.2c0-1.2,0.2-2.1,0.8-2.9c0.5-0.8,1.2-1.4,2.2-1.8
			c-1.9-0.8-2.8-2.3-2.8-4.6c0-0.8,0.1-1.5,0.4-2.2c0.3-0.7,0.7-1.3,1.2-1.8c0.5-0.5,1.2-0.9,2.1-1.1c0.8-0.3,1.9-0.4,3.1-0.4H335.5
			z"/>
		<path class="st0" d="M351,48.5c1.1,0,2.1,0.2,2.9,0.5c0.8,0.3,1.5,0.8,2,1.3c0.5,0.6,0.9,1.2,1.2,1.9c0.2,0.7,0.4,1.5,0.4,2.3
			c0,0.6-0.1,1.3-0.2,1.9c-0.2,0.6-0.4,1.2-0.8,1.8s-0.8,1-1.3,1.5c-0.5,0.4-1.2,0.7-2,1l4.7,8.1H354l-4.6-7.8h-5.3
			c-0.3,0-0.5,0.2-0.5,0.5v7.3h-3.5v-8c0-1.1,0.2-2,0.8-2.5c0.5-0.5,1.3-0.8,2.4-0.8h7.9c0.5,0,0.9-0.1,1.3-0.2
			c0.4-0.2,0.6-0.4,0.9-0.6c0.2-0.3,0.4-0.6,0.5-0.9c0.1-0.3,0.2-0.7,0.2-1c0-0.7-0.2-1.3-0.7-1.9c-0.5-0.5-1.2-0.8-2.1-0.8h-11.1
			v-3.5H351z"/>
	</g>
	<g>
		<g>
			<path class="st1" d="M58.6,22.4v35.2c0,5.1-1.1,8.9-3.3,11.3c-2.2,2.5-5.4,3.7-9.6,3.7h-9.7c-4.6,0-8.3-1.4-11.1-4.3
				C22.3,65.4,21,61,21,55.1c0-5.9,1.4-10.3,4.1-13.2c2.7-2.9,6.4-4.3,11.1-4.3h15.5V22.4H58.6z M36.8,44.3c-3.1,0-5.3,0.8-6.7,2.5
				c-1.4,1.7-2.1,4.4-2.1,8.2c0,3.8,0.7,6.5,2.1,8.2c1.4,1.7,3.6,2.5,6.7,2.5h6.9c2.9,0,4.9-0.7,6.1-2c1.2-1.3,1.8-3.5,1.8-6.5V44.3
				H36.8z"/>
			<path class="st1" d="M90.3,37.6c4.2,0,7.4,1.2,9.6,3.7c2.2,2.5,3.3,6.2,3.3,11.3v20.2c0,2.5-0.2,4.6-0.7,6.4
				c-0.5,1.8-1.2,3.2-2.3,4.3c-1,1.1-2.4,1.9-4.1,2.4c-1.7,0.5-3.8,0.8-6.2,0.8H69.1v-6.8h20c2.6,0,4.4-0.6,5.4-1.7
				c1-1.1,1.5-2.9,1.5-5.4v-1.6H80.6c-4.7,0-8.4-1.4-11.1-4.1c-2.7-2.8-4.1-7-4.1-12.7c0-5.7,1.4-9.9,4.1-12.6
				c2.7-2.7,6.4-4.1,11.1-4.1H90.3z M72.5,54.6c0,3.6,0.7,6.2,2.1,7.8c1.4,1.6,3.6,2.4,6.7,2.4h14.8V52.5c0-2.9-0.6-5-1.8-6.2
				c-1.2-1.3-3.2-1.9-6-1.9h-7c-3.1,0-5.3,0.8-6.7,2.4C73.2,48.4,72.5,51,72.5,54.6z"/>
		</g>
		<rect x="69.4" y="22.7" class="st1" width="33.7" height="6.8"/>
		<rect x="21" y="79.8" class="st1" width="48.3" height="6.8"/>
	</g>
</g>
</svg>
